# xmcd CD database file
#
# Track frame offsets:
#	150
#	18734
#	37356
#	59410
#	72275
#	91814
#	112679
#	127543
#	149263
#	184152
#
# Disc length: 2651 seconds
#
# Revision: 0
# Processed by: cddbd v1.5PL3 Copyright (c) Steve Scherf et al.
# Submitted via: CDex 1.51
#
DISCID=860a590a
DTITLE=Various Artist - The Steel Guitar Tribute to Lynyrd Skynyrd
DYEAR=2002
DGENRE=Country
TTITLE0=T for Texas
TTITLE1=Honky Tonk Night Time Man
TTITLE2=Sweet Home Alabama
TTITLE3=Double Trouble
TTITLE4=The Ballad of Curtis Loew
TTITLE5=Simple Man
TTITLE6=I Know a Little
TTITLE7=Call Me the Breeze
TTITLE8=Free Bird
TTITLE9=Gimme Three Steps
EXTD=YEAR: 2002
EXTT0=
EXTT1=
EXTT2=
EXTT3=
EXTT4=
EXTT5=
EXTT6=
EXTT7=
EXTT8=
EXTT9=
PLAYORDER=
